<svg width="16" height="12" viewBox="0 0 16 12" fill="none" xmlns="http://www.w3.org/2000/svg">
<path opacity="0.4" d="M3.55556 3.33332H12.4444V8.66666H3.55556V3.33332ZM14.6667 5.99999C14.6667 6.73638 15.2636 7.33332 16 7.33332V9.99999C16 10.7364 15.4031 11.3333 14.6667 11.3333H1.33333C0.596944 11.3333 0 10.7364 0 9.99999V7.33332C0.736389 7.33332 1.33333 6.73638 1.33333 5.99999C1.33333 5.2636 0.736389 4.66666 0 4.66666V1.99999C0 1.2636 0.596944 0.666656 1.33333 0.666656H14.6667C15.4031 0.666656 16 1.2636 16 1.99999V4.66666C15.2636 4.66666 14.6667 5.2636 14.6667 5.99999ZM13.3333 3.1111C13.3333 2.74291 13.0349 2.44443 12.6667 2.44443H3.33333C2.96514 2.44443 2.66667 2.74291 2.66667 3.1111V8.88888C2.66667 9.25707 2.96514 9.55554 3.33333 9.55554H12.6667C13.0349 9.55554 13.3333 9.25707 13.3333 8.88888V3.1111Z" fill="#DDE2FF"/>
</svg>
