<svg width="26" height="26" viewBox="0 0 26 26" fill="none" xmlns="http://www.w3.org/2000/svg">
<path d="M19.1862 15.6512L21.8387 13C23.0083 11.8266 23.6651 10.2374 23.6651 8.58059C23.6651 6.92381 23.0083 5.33461 21.8387 4.16121C20.6656 2.99097 19.0763 2.33377 17.4193 2.33377C15.7624 2.33377 14.173 2.99097 13 4.16121L12.1162 5.04496L13.8837 6.81246L14.7675 5.92871C15.4719 5.22745 16.4254 4.83375 17.4193 4.83375C18.4133 4.83375 19.3668 5.22745 20.0712 5.92871C20.7731 6.6328 21.1672 7.58642 21.1672 8.58059C21.1672 9.57475 20.7731 10.5284 20.0712 11.2325L17.4187 13.8837C17.115 14.1854 16.7571 14.4272 16.3637 14.5962L14.7675 13L16.535 11.2325L15.6512 10.3487C15.0724 9.76636 14.3838 9.30464 13.6253 8.99029C12.8668 8.67595 12.0535 8.51524 11.2325 8.51746C10.9387 8.51746 10.6525 8.55746 10.3687 8.59996L2.63371 0.866211L0.866211 2.63371L23.3662 25.1337L25.1337 23.3662L18.2137 16.4462C18.56 16.2162 18.8862 15.9512 19.1862 15.6512ZM11.2325 20.0712C10.528 20.7725 9.57455 21.1662 8.58059 21.1662C7.58662 21.1662 6.63312 20.7725 5.92871 20.0712C5.22684 19.3671 4.83272 18.4135 4.83272 17.4193C4.83272 16.4252 5.22684 15.4715 5.92871 14.7675L7.77371 12.9237L6.00621 11.1562L4.16121 13C2.99158 14.1734 2.3348 15.7626 2.3348 17.4193C2.3348 19.0761 2.99158 20.6653 4.16121 21.8387C4.74105 22.4194 5.42992 22.8798 6.18823 23.1934C6.94654 23.507 7.75935 23.6677 8.57996 23.6662C9.40079 23.6679 10.2139 23.5073 10.9724 23.1937C11.7309 22.8801 12.42 22.4196 13 21.8387L13.8837 20.955L12.1162 19.1875L11.2325 20.0712Z" fill="#55ACD8"/>
</svg>
