<svg width="92" height="86" viewBox="0 0 92 86" fill="none" xmlns="http://www.w3.org/2000/svg">
<path d="M47.2703 5.53103L48.3322 5.58779C60.2626 6.22554 70.7769 11.725 77.6574 20.0163L78.359 20.8618L77.2606 20.8354C75.4748 20.7926 73.6975 20.7823 71.9278 20.8071C68.8553 20.8547 65.7857 21.0068 62.725 21.263L62.3928 21.2908L62.2394 20.9948C61.7195 19.9917 60.9055 19.1409 59.886 18.5435C58.8664 17.9459 57.6846 17.6273 56.4761 17.6269L47.2703 5.53103ZM47.2703 5.53103L47.904 6.38503M47.2703 5.53103L47.904 6.38503M47.904 6.38503C50.5338 9.92919 52.9305 13.6194 55.0809 17.4352L55.2467 17.7294M47.904 6.38503L55.2467 17.7294M55.2467 17.7294L55.5816 17.6854M55.2467 17.7294L55.5816 17.6854M55.5816 17.6854C55.8778 17.6465 56.1767 17.6269 56.4759 17.6269L55.5816 17.6854ZM45.9995 80.48C51.254 80.4853 56.4588 79.5229 61.3169 77.6471L61.5809 77.5452L61.6294 77.2663C63.1936 68.2667 63.5034 59.483 62.4907 50.9093L62.4482 50.5486L62.092 50.4776C60.6584 50.1917 59.3786 49.4579 58.4611 48.4051L58.2301 48.14L57.9024 48.2678C49.4271 51.5755 41.3603 55.7652 33.6708 60.7911L33.3684 60.9887L33.461 61.3379C35.1485 67.697 37.8335 73.9382 41.5477 80.0513L41.6781 80.2659L41.9281 80.2895C43.2665 80.4156 44.6252 80.48 45.9995 80.48ZM45.9995 80.48L46 79.98M45.9995 80.48C45.9997 80.48 45.9998 80.48 46 80.48V79.98M46 79.98C44.6412 79.98 43.298 79.9164 41.975 79.7917C38.284 73.7166 35.6187 67.5195 33.9443 61.2096C41.6061 56.2019 49.6423 52.0283 58.0842 48.7336C59.0772 49.873 60.4566 50.6613 61.9942 50.9679C63.0007 59.4896 62.6934 68.2247 61.1368 77.1807C56.3368 79.034 51.1933 79.9852 46 79.98ZM43.1074 5.84763L42.9412 5.63537L42.6726 5.65758C42.6105 5.66271 42.5475 5.66672 42.4788 5.67107L42.4766 5.67121C42.4102 5.67542 42.3383 5.67998 42.2659 5.68596L41.9916 5.70864L41.864 5.95261C38.746 11.9166 36.3045 17.8147 34.5583 23.6406L34.4449 24.019L34.7868 24.2169C35.4783 24.6171 36.0799 25.1355 36.5606 25.743L36.7677 26.0047L37.0888 25.9139C41.2586 24.7347 45.4897 23.7538 49.7659 22.9749L50.1056 22.913L50.1681 22.5735C50.378 21.433 50.942 20.3704 51.7958 19.5192L52.0651 19.2506L51.8782 18.9193C49.3832 14.4986 46.4683 10.1399 43.1074 5.84763ZM37.2381 7.25457L37.695 6.3208L36.6803 6.54675C26.9747 8.70796 18.4759 14.1847 12.8583 21.9112L12.4062 22.533L13.1579 22.6941C17.3919 23.6017 21.5836 24.6738 25.722 25.9076L26.0462 26.0043L26.2565 25.7393C26.7726 25.0891 27.4269 24.5418 28.1808 24.1327C28.9347 23.7236 29.7716 23.4617 30.6402 23.3643L30.9706 23.3272L31.0643 23.0082C32.5958 17.7888 34.6551 12.533 37.2381 7.25457ZM80.8519 24.4981L80.7141 24.2712L74.6221 24.5943L74.6251 24.0943C74.6251 24.0943 74.6251 24.0943 74.625 24.0943C70.7629 24.071 66.9424 24.2186 63.1571 24.5259L62.7983 24.5551L62.7121 24.9046C62.4045 26.1522 61.6709 27.2792 60.6137 28.113L60.3209 28.3439L60.4587 28.6904C61.7205 31.8616 62.7946 35.0952 63.6761 38.3765L63.7657 38.7102L64.1096 38.7443C64.95 38.8278 65.7634 39.0651 66.5033 39.4417C67.2431 39.8182 67.8941 40.3263 68.4202 40.9352L68.6277 41.1754L68.9334 41.0898C74.1891 39.6178 79.588 38.4499 85.1338 37.6068L85.6371 37.5302L85.5515 37.0284C84.7998 32.6209 83.2076 28.3768 80.8519 24.4981ZM10.8942 25.6199L10.5329 25.5455L10.3552 25.8688C8.33668 29.543 6.98523 33.5065 6.35703 37.5973L6.20499 38.5874L7.08766 38.1137C12.8586 35.0169 18.7266 32.3151 24.6935 30.0241L25.0274 29.8959L25.014 29.5385L25.0131 29.5148L25.0011 29.1553L24.6564 29.0524C20.1944 27.7208 15.6004 26.5882 10.8942 25.6199ZM50.8702 26.4432L50.6929 26.1435L50.3502 26.206C46.2409 26.9552 42.1755 27.8973 38.1674 29.0288L37.8183 29.1274L37.8037 29.49C37.801 29.5573 37.797 29.6247 37.7919 29.6919L37.7636 30.0594L38.1063 30.1951C45.2106 33.0088 52.0342 36.4044 58.4975 40.3422L58.8077 40.5312L59.0833 40.2946C59.3624 40.0551 59.6641 39.8389 59.985 39.6487L60.3119 39.455L60.2128 39.0882C59.3659 35.9535 58.3352 32.8648 57.1253 29.8362L56.9947 29.5095L56.6431 29.5221C56.5863 29.5241 56.5295 29.5254 56.4727 29.526C55.3242 29.5252 54.1988 29.2369 53.2134 28.6935C52.2274 28.1498 51.4195 27.3716 50.8702 26.4432ZM26.5897 33.1845L26.3594 32.9397L26.0458 33.0605C19.3133 35.654 12.7016 38.7923 6.19883 42.4445L5.94368 42.5878V42.8805C5.94368 42.8872 5.94338 42.8955 5.94238 42.917C5.94154 42.935 5.94 42.9663 5.94 43C5.94 52.9172 10.0405 61.9091 16.728 68.5996L17.0514 68.9232L17.4024 68.6297C21.1536 65.4932 25.0677 62.5309 29.1306 59.7536L29.4082 59.5639L29.3371 59.2352C27.6206 51.2982 27.3705 43.1819 28.4965 34.945L28.5438 34.5992L28.2355 34.4356C27.6147 34.1062 27.0587 33.6831 26.5897 33.1845ZM36.6405 33.1988L36.3346 33.078L36.1026 33.311C35.1223 34.2954 33.8099 34.9459 32.376 35.1503L32.002 35.2036L31.9511 35.578C30.9755 42.7612 31.114 49.826 32.4217 56.7598L32.5583 57.4841L33.1808 57.0894C40.6596 52.347 48.5003 48.3585 56.7124 45.1671L57.0324 45.0427L57.0312 44.6994V44.6624L57.0312 44.6618C57.0319 44.3741 57.055 44.0867 57.1004 43.802L57.1531 43.472L56.8683 43.2972C50.4661 39.3657 43.6957 35.9858 36.6405 33.1988ZM86.0163 41.3762L85.9912 40.8194L85.4404 40.9045C80.291 41.7005 75.2001 42.7985 70.198 44.1919L69.8331 44.2936L69.8322 44.6724C69.8301 45.5295 69.6287 46.3773 69.2405 47.1572L69.0566 47.5267L69.3846 47.7773C73.7474 51.11 77.8704 54.7074 81.7269 58.5463L82.2251 59.0422L82.5301 58.4088C84.8623 53.5657 86.066 48.3125 86.06 42.9986C86.06 42.4508 86.0403 41.9089 86.0163 41.3762ZM66.8337 50.1075L66.0307 49.4958V50.5052V50.5069V50.5366L66.0342 50.5661C66.9764 58.4734 66.835 66.5489 65.6586 74.7663L65.5161 75.7612L66.3955 75.2747C72.0539 72.1447 76.8065 67.7609 80.2325 62.5061L80.4516 62.1701L80.1711 61.8834C76.0383 57.6589 71.5806 53.7231 66.8337 50.1075ZM30.4779 63.7439L30.2835 63.0702L29.7099 63.4735C26.4388 65.7735 23.2367 68.2328 20.1017 70.8381L19.6282 71.2315L20.1104 71.6143C24.7428 75.2911 30.2102 77.9283 36.0947 79.327L37.1899 79.5873L36.6487 78.6002C33.9803 73.7326 31.9301 68.7752 30.4779 63.7439ZM0.5 43C0.5 19.5946 20.8767 0.5 46 0.5C71.1233 0.5 91.5 19.5946 91.5 43C91.5 66.4054 71.1233 85.5 46 85.5C20.8767 85.5 0.5 66.4054 0.5 43Z" fill="white" stroke="white"/>
</svg>
