<svg width="98" height="85" viewBox="0 0 98 85" fill="none" xmlns="http://www.w3.org/2000/svg">
<g clip-path="url(#clip0_65_1708)">
<path d="M-0.416504 44.3807C0.0489961 21.0986 18.8374 4.52365 41.8368 1.84084C69.2737 -1.344 92.3527 14.8432 96.7872 36.3163C100.998 56.6818 88.0928 75.7457 66.8146 83.3C64.9801 83.9482 63.9756 83.5896 63.2743 81.9719L52.6995 58.148C52.0962 56.7482 52.5066 55.8769 54.0868 55.258C58.8735 53.3747 61.8533 50.2218 62.6526 45.6955C62.9503 44.0358 62.8515 42.3407 62.3624 40.7155C61.8733 39.0903 61.0043 37.5695 59.8094 36.2477C58.6145 34.9259 57.1192 33.8312 55.4162 33.0314C53.7132 32.2317 51.8389 31.7441 49.9096 31.5988C46.3359 31.2987 42.7644 32.1895 39.9204 34.0903C37.0765 35.9911 35.1732 38.7595 34.5971 41.8333C33.5589 47.4938 36.7806 52.7638 42.8566 55.1571C44.7554 55.9035 45.1382 56.6366 44.4032 58.3127L33.7794 82.3013C33.2679 83.478 32.1532 83.8951 30.7169 83.409C19.5025 79.6036 10.3019 72.3423 4.87856 63.0169C-0.0490035 54.578 -0.0949414 47.9799 -0.416504 44.3674V44.3807ZM3.71481 44.0513C3.7975 45.1855 3.84037 46.4977 3.97206 47.8418C5.21237 60.1668 13.7629 72.4386 29.8563 79.2307C30.4964 79.4777 30.7352 79.3688 30.9741 78.8455C33.9111 72.1332 36.8756 65.4261 39.8584 58.7138C40.1126 58.1613 39.984 57.8983 39.3929 57.5796C33.1424 54.161 30.0309 49.2629 30.38 42.8321C30.5729 39.1372 32.2175 35.886 35.0871 33.174C41.0038 27.5719 50.3016 26.3527 57.9119 30.1591C60.9861 31.7036 63.4706 33.9961 65.0579 36.7528C66.6451 39.5096 67.2655 42.6095 66.8421 45.669C66.1224 50.8965 63.0324 54.9101 57.7986 57.6221C57.2718 57.8983 57.1126 58.1188 57.3545 58.6554C60.3527 65.381 63.3356 72.104 66.2847 78.8296C66.5267 79.3688 66.7656 79.4777 67.3872 79.2147C74.4218 76.3779 80.2742 72.3111 84.8067 66.8897C91.679 58.6155 94.5179 49.4143 93.1612 39.2887C90.4662 19.1437 69.5708 2.45975 42.6637 5.33912C21.7039 7.56771 4.06393 22.9102 3.71175 44.0486L3.71481 44.0513Z" fill="white"/>
</g>
<defs>
<clipPath id="clip0_65_1708">
<rect width="98" height="85" fill="white"/>
</clipPath>
</defs>
</svg>
