<svg width="149" height="143" viewBox="0 0 149 143" fill="none" xmlns="http://www.w3.org/2000/svg">
<path d="M98.9453 31.2813C98.9453 30.3924 99.3132 29.5399 99.9681 28.9114C100.623 28.2829 101.511 27.9298 102.437 27.9298H112.914V17.8751C112.914 16.9862 113.282 16.1337 113.937 15.5052C114.592 14.8766 115.48 14.5235 116.406 14.5235C117.332 14.5235 118.221 14.8766 118.876 15.5052C119.53 16.1337 119.898 16.9862 119.898 17.8751V27.9298H130.375C131.301 27.9298 132.189 28.2829 132.844 28.9114C133.499 29.5399 133.867 30.3924 133.867 31.2813C133.867 32.1702 133.499 33.0227 132.844 33.6512C132.189 34.2798 131.301 34.6329 130.375 34.6329H119.898V44.6876C119.898 45.5765 119.53 46.4289 118.876 47.0575C118.221 47.686 117.332 48.0391 116.406 48.0391C115.48 48.0391 114.592 47.686 113.937 47.0575C113.282 46.4289 112.914 45.5765 112.914 44.6876V34.6329H102.437C101.511 34.6329 100.623 34.2798 99.9681 33.6512C99.3132 33.0227 98.9453 32.1702 98.9453 31.2813ZM133.111 62.5067C133.625 65.4789 133.878 68.4872 133.867 71.5001C133.874 79.4158 132.159 87.2457 128.831 94.4886C125.504 101.732 120.638 108.228 114.544 113.562L113.845 114.121C103.002 123.363 89.0027 128.468 74.5 128.468C59.9973 128.468 45.9982 123.363 35.1547 114.121L34.4562 113.562C25.62 105.813 19.4306 95.6822 16.7001 84.4976C13.9696 73.3131 14.8256 61.5976 19.1557 50.8882C23.4857 40.1788 31.0877 30.9756 40.9642 24.4861C50.8408 17.9966 62.5305 14.5239 74.5 14.5235C77.6392 14.5133 80.7738 14.7562 83.8707 15.2497C84.3544 15.2823 84.8257 15.4113 85.2547 15.6283C85.6836 15.8454 86.0607 16.1458 86.362 16.5104C86.6634 16.8751 86.8822 17.2959 87.0048 17.7462C87.1273 18.1965 87.1507 18.6663 87.0736 19.1258C86.9966 19.5853 86.8206 20.0243 86.557 20.4149C86.2934 20.8055 85.948 21.1392 85.5426 21.3946C85.1373 21.65 84.6809 21.8216 84.2027 21.8985C83.7244 21.9754 83.2348 21.9558 82.7648 21.8411C80.0295 21.4401 77.267 21.2348 74.5 21.2266C64.2746 21.214 54.2694 24.0771 45.7209 29.4621C37.1724 34.8471 30.4552 42.518 26.3996 51.5268C22.344 60.5356 21.1276 70.4874 22.9008 80.1524C24.674 89.8174 29.359 98.7719 36.3769 105.909C41.8775 97.743 50.0761 91.5859 59.6582 88.4255C54.8749 85.3678 51.2437 80.9141 49.3016 75.7228C47.3594 70.5315 47.2094 64.8782 48.8737 59.5987C50.538 54.3193 53.9282 49.694 58.5432 46.4066C63.1581 43.1192 68.7528 41.3443 74.5 41.3443C80.2472 41.3443 85.8419 43.1192 90.4568 46.4066C95.0717 49.694 98.462 54.3193 100.126 59.5987C101.791 64.8782 101.641 70.5315 99.6984 75.7228C97.7563 80.9141 94.1251 85.3678 89.3418 88.4255C98.9239 91.5859 107.122 97.743 112.623 105.909C121.79 96.6143 126.894 84.2988 126.883 71.5001C126.874 68.8445 126.66 66.1932 126.243 63.568C126.108 62.6882 126.336 61.7925 126.88 61.0724C127.424 60.3522 128.239 59.8646 129.153 59.7137C130.063 59.5852 130.989 59.8065 131.73 60.3294C132.471 60.8523 132.967 61.6348 133.111 62.5067ZM74.5 86.0235C78.4139 86.0235 82.2399 84.9096 85.4942 82.8227C88.7485 80.7359 91.2849 77.7697 92.7827 74.2993C94.2805 70.8289 94.6724 67.0102 93.9088 63.3261C93.1452 59.642 91.2605 56.2579 88.493 53.6018C85.7254 50.9457 82.1993 49.1369 78.3606 48.4041C74.5219 47.6712 70.543 48.0473 66.927 49.4848C63.3111 50.9223 60.2204 53.3566 58.046 56.4798C55.8715 59.6031 54.7109 63.275 54.7109 67.0313C54.7263 72.0638 56.8161 76.886 60.524 80.4445C64.2318 84.0031 69.2563 86.0088 74.5 86.0235ZM74.5 121.773C86.4904 121.782 98.1201 117.838 107.443 110.602C104.019 105.155 99.1875 100.649 93.4158 97.5211C87.644 94.3934 81.1282 92.7499 74.5 92.7499C67.8717 92.7499 61.3559 94.3934 55.5842 97.5211C49.8125 100.649 44.9806 105.155 41.557 110.602C50.8799 117.838 62.5096 121.782 74.5 121.773Z" fill="#55ACD8"/>
</svg>
