<svg width="106" height="96" viewBox="0 0 106 96" fill="none" xmlns="http://www.w3.org/2000/svg">
<path d="M39.75 0C40.6285 0 41.4711 0.316071 42.0923 0.87868C42.7135 1.44129 43.0625 2.20435 43.0625 3V18H62.9375V3C62.9375 2.20435 63.2865 1.44129 63.9077 0.87868C64.5289 0.316071 65.3715 0 66.25 0C67.1285 0 67.9711 0.316071 68.5923 0.87868C69.2135 1.44129 69.5625 2.20435 69.5625 3V18H76.1875C77.066 18 77.9086 18.3161 78.5298 18.8787C79.151 19.4413 79.5 20.2044 79.5 21V39C79.5 44.5695 77.057 49.911 72.7085 53.8492C68.36 57.7875 62.4622 60 56.3125 60C56.2993 62.604 56.2463 65.07 56.0475 67.32C55.7759 70.404 55.2127 73.338 53.9474 75.864C52.6645 78.5355 50.3915 80.7171 47.5211 82.032C44.5531 83.4 40.8696 84 36.4375 84C29.8258 84 25.7712 85.98 23.3597 88.308C21.1825 90.3904 19.9401 93.1328 19.875 96H13.25C13.25 92.304 14.787 87.798 18.5301 84.192C22.3527 80.52 28.2291 78 36.4375 78C40.2866 78 42.8107 77.472 44.5068 76.686C46.1034 75.948 47.1567 74.886 47.912 73.386C48.7136 71.79 49.1906 69.66 49.4357 66.846C49.6146 64.806 49.6676 62.538 49.6809 60C43.5323 59.9984 37.6362 57.7852 33.2891 53.8471C28.9421 49.909 26.5 44.5685 26.5 39V21C26.5 20.2044 26.849 19.4413 27.4702 18.8787C28.0914 18.3161 28.934 18 29.8125 18H36.4375V3C36.4375 2.20435 36.7865 1.44129 37.4077 0.87868C38.0289 0.316071 38.8715 0 39.75 0V0ZM33.125 24V39C33.125 42.9782 34.87 46.7936 37.976 49.6066C41.0821 52.4196 45.2949 54 49.6875 54H56.3125C60.7051 54 64.9179 52.4196 68.024 49.6066C71.13 46.7936 72.875 42.9782 72.875 39V24H33.125Z" fill="white"/>
</svg>
