<svg width="120" height="110" viewBox="0 0 120 110" fill="none" xmlns="http://www.w3.org/2000/svg">
<path fill-rule="evenodd" clip-rule="evenodd" d="M37.5 38.9583C37.5 33.4882 39.8705 28.2422 44.0901 24.3743C48.3097 20.5063 54.0326 18.3333 60 18.3333C65.9674 18.3333 71.6903 20.5063 75.9099 24.3743C80.1295 28.2422 82.5 33.4882 82.5 38.9583V41.25H87.5V38.9583C87.5 25.0365 75.1875 13.75 60 13.75C44.8125 13.75 32.5 25.0365 32.5 38.9583V41.25H37.5V38.9583ZM77.5 41.25V38.9583C77.5 36.8517 77.0474 34.7657 76.1679 32.8195C75.2884 30.8732 73.9994 29.1048 72.3744 27.6152C70.7493 26.1256 68.8202 24.9439 66.697 24.1378C64.5738 23.3316 62.2981 22.9167 60 22.9167C57.7019 22.9167 55.4262 23.3316 53.303 24.1378C51.1798 24.9439 49.2507 26.1256 47.6256 27.6152C46.0006 29.1048 44.7116 30.8732 43.8321 32.8195C42.9526 34.7657 42.5 36.8517 42.5 38.9583V41.25H47.5V38.9583C47.5 35.9194 48.817 33.0049 51.1612 30.8561C53.5054 28.7072 56.6848 27.5 60 27.5C63.3152 27.5 66.4946 28.7072 68.8388 30.8561C71.183 33.0049 72.5 35.9194 72.5 38.9583V41.25H77.5Z" fill="white"/>
<path fill-rule="evenodd" clip-rule="evenodd" d="M42.5 45.8333H92.5V91.6667H27.5V45.8333H37.5V41.25H27.5C26.1739 41.25 24.9021 41.7329 23.9645 42.5924C23.0268 43.452 22.5 44.6178 22.5 45.8333V91.6667C22.5 92.8822 23.0268 94.048 23.9645 94.9076C24.9021 95.7671 26.1739 96.25 27.5 96.25H92.5C93.8261 96.25 95.0979 95.7671 96.0355 94.9076C96.9732 94.048 97.5 92.8822 97.5 91.6667V45.8333C97.5 44.6178 96.9732 43.452 96.0355 42.5924C95.0979 41.7329 93.8261 41.25 92.5 41.25H42.5V45.8333Z" fill="white"/>
<path fill-rule="evenodd" clip-rule="evenodd" d="M82.5 59.5833H37.5V55H82.5V59.5833Z" fill="white"/>
<path fill-rule="evenodd" clip-rule="evenodd" d="M82.5 71.0416H37.5V66.4583H82.5V71.0416Z" fill="white"/>
<path fill-rule="evenodd" clip-rule="evenodd" d="M82.5 82.5001H37.5V77.9167H82.5V82.5001Z" fill="white"/>
</svg>
