<svg version="1.0" xmlns="http://www.w3.org/2000/svg" width="37" height="35" viewBox="0 0 1280 1126">
    <g fill="#ffc107">
        <path
            d="M620.1 2c-4.1 1-11.3 3.7-16 6.1-7 3.5-10.5 6.2-18.7 14.4-6.1 6-12.4 13.4-15.7 18.5-8.5 13.2-68.1 118.2-296.2 521.5-79.3 140.2-171.4 303.2-204.7 362-33.3 58.9-61.7 109.8-63.1 113.1-7.9 18.7-7.2 39.4 1.9 55.9 1.5 2.8 6.4 8.6 10.8 13 9.1 9 17.7 13.9 30.6 17.5l7.6 2 587.9-.2 588-.3 8.1-2.7c36.3-12.4 49.4-49.9 30.4-87.8-2.1-4.3-89.9-158-195.1-341.7C970.7 509.7 845.1 290.4 796.8 206c-48.4-84.4-90.9-158-94.6-163.5-11.8-17.7-26.8-31.1-41.9-37.3C647.8 0 633.1-1.2 620.1 2zm160.7 341c79.3 138.3 201.9 352.3 272.4 475.5l128.3 224-271.2.3c-149.2.1-393.4.1-542.7 0l-271.5-.3L262.7 748C581.5 184.3 635.2 89.7 636.1 90.8c.4.4 65.5 113.9 144.7 252.2z" />
        <path
            d="M629 338.6c-1.4.3-6.1 1.4-10.4 2.5-39 9.8-70.6 47.4-70.6 83.7 0 4.6 2.2 25.4 5 46.1 2.7 20.7 11.3 85.7 19 144.6 20.1 153.5 19.9 151.7 21.6 158.1 4.2 16.5 14.1 29.7 27.1 36.1 6.7 3.3 8.6 3.8 16.8 4.1 15.2.7 24.6-3 34.8-13.6 9.9-10.5 14.4-22.4 17.6-46.4 1.1-8.4 6.1-46.2 11.1-84.1 4.9-37.8 13.1-99.6 18-137.5 5-37.8 10-75.6 11.1-84 2.4-18.2 2.5-30.5.4-38.7-8.2-32.3-36-59.9-69.3-68.6-7.5-2-26.6-3.3-32.2-2.3zM632.2 852.1c-34.5 4.4-59.4 37.1-55.2 72.6 2 16.6 8.6 30.1 20.4 41 11.4 10.7 23.7 16 39.1 17 18.7 1.1 33.6-4.7 47.5-18.7 13.4-13.4 19.2-27.3 19.3-46.5.1-11.6-1.3-18.3-5.8-28-12-26.1-37.9-40.9-65.3-37.4z" />
    </g>
</svg>